# xmcd
#
# Track frame offsets: 
#        150
#        12877
#        22997
#        33469
#        44496
#        56262
#        69025
#        81907
#        92675
#        102090
#        114728
#        136851
#        147800
#        160793
#        172719
#        183424
#        193374
#        203400
#        215862
#        229487
#        238422
#        247905
#        262312
#        274911
#        284452
#        295632
#        313513
#        324492
#        336783
#
# Disc length: 4632 seconds
#
# Revision: 0
# Processed by: cddbd v1.5.1PL2 Copyright (c) Steve Scherf et al.
# Submitted via: ExactAudioCopy v0.95b3
#
DISCID=a612161d
DTITLE=Various Artist - Windswept-Trio-Quartet Sampler [CD3]
DYEAR=2004
DGENRE=Pop/Rock
TTITLE0=Darlene Love - Christmas (Baby Please Come Home)
TTITLE1=The Crystals - Da Doo Ron Ron
TTITLE2=Bobby Darin - Eighteen Yellow Roses
TTITLE3=The Searchers - Sweets For My Sweet
TTITLE4=The Crystals - Then He Kissed Me
TTITLE5=The Ronettes - Baby I Love You
TTITLE6=The Dixie Cups - Chapel Of Love
TTITLE7=Manfred Mann - Do Wah Diddy Diddy
TTITLE8=The Rip Chords - Hey Little Cobra
TTITLE9=The Jellybeans - I Wanna Love Him So Bad
TTITLE10=Zero Mostel - If I Were A Rich Man
TTITLE11=J. Frank Wilson - Last Kiss
TTITLE12=The Shangri-La's - Leader Of The Pack
TTITLE13=Lesley Gore - Maybe I Know
TTITLE14=The Shangri-La's - Remember (Walking In The Sand)
TTITLE15=Jean Shepard - Second Fiddle To An Old Guitar
TTITLE16=Betty Everett - Shoop Shoop Song (It's In His Kiss)
TTITLE17=The Drifters - Under The Boardwalk
TTITLE18=The Ad Libs - Boy From New York City
TTITLE19=The Lovin' Spoonful - Did You Ever Have To Make Up Your Mind
TTITLE20=The Lovin' Spoonful - Do You Believe In Magic
TTITLE21=The Moody Blues - Go Now
TTITLE22=James Brown - I Got You (I Feel Good)
TTITLE23=The Dixie Cups - Iko Iko
TTITLE24=The Lovin' Spoonful - You Didn't Have To Be So Nice
TTITLE25=Red Sovine - Giddyup Go
TTITLE26=Love - 7 and 7 Is
TTITLE27=The Capitols - Cool Jerk
TTITLE28=The Lovin' Spoonful - Daydream
EXTD=
EXTT0=
EXTT1=
EXTT2=
EXTT3=
EXTT4=
EXTT5=
EXTT6=
EXTT7=
EXTT8=
EXTT9=
EXTT10=
EXTT11=
EXTT12=
EXTT13=
EXTT14=
EXTT15=
EXTT16=
EXTT17=
EXTT18=
EXTT19=
EXTT20=
EXTT21=
EXTT22=
EXTT23=
EXTT24=
EXTT25=
EXTT26=
EXTT27=
EXTT28=
PLAYORDER=
